<svg width="12" height="12" viewBox="0 0 12 12" fill="none" xmlns="http://www.w3.org/2000/svg">
<path d="M7.84429 1.93522C6.83392 1.35913 6.0491 0.91164 5.41172 0.621342C4.77194 0.329955 4.21659 0.165401 3.67659 0.221453C2.81955 0.310413 2.03933 0.754484 1.53088 1.44561C1.20972 1.88215 1.076 2.44245 1.01156 3.13611C0.947382 3.827 0.947385 4.72245 0.947388 5.87406V5.92206C0.947385 7.07366 0.947382 7.96912 1.01156 8.66C1.076 9.35367 1.20972 9.91396 1.53088 10.3505C2.03933 11.0416 2.81954 11.4857 3.67659 11.5747C4.21659 11.6307 4.77194 11.4662 5.41172 11.1748C6.0491 10.8845 6.83391 10.437 7.84427 9.86091L7.88528 9.83752C8.89558 9.26148 9.68043 8.81398 10.2538 8.41394C10.8287 8.01276 11.2526 7.61906 11.4748 7.12612C11.8271 6.34453 11.8271 5.45159 11.4748 4.67C11.2526 4.17706 10.8287 3.78335 10.2538 3.38217C9.68043 2.98214 8.89558 2.53464 7.88528 1.95859L7.84429 1.93522Z" fill="#959595"/>
</svg>
